<svg width="32" height="32" viewBox="0 0 32 32" fill="none" xmlns="http://www.w3.org/2000/svg">
<path d="M14.3175 17.3535C16.4163 16.0406 19.061 14.4314 21.6974 15.0967C27.6029 16.5869 25.672 25.3348 30.258 28.375C30.6761 28.6521 31.7137 28.9248 31.6623 28.8867C31.6229 28.9612 31.5703 29.0306 31.4816 29.0459C30.5027 29.2147 29.0502 29.238 28.0597 29.2305C24.261 29.2015 19.6296 29.6673 16.2482 27.6621C14.5052 26.6338 13.2491 24.9477 12.7619 22.9834C12.3885 21.5106 12.5305 20.3849 12.8986 18.9463C14.8027 19.328 16.7726 20.0707 18.4787 20.9971C21.1884 22.4685 23.0298 24.8982 25.13 27.0889L25.3039 27.0664C24.8483 26.5676 24.3496 26.0461 23.9425 25.5098C23.2095 24.5438 22.5022 23.5532 21.7502 22.6016C20.4819 21.0028 18.9241 19.6568 17.1584 18.6338C16.3847 18.1945 15.5692 17.8562 14.7414 17.5361C14.5974 17.4804 14.4552 17.4239 14.3175 17.3535ZM8.75797 18.5459C9.6523 18.4395 10.9596 18.623 11.8713 18.6943C11.3862 19.5675 11.0281 20.7819 10.6408 21.7119C9.3418 24.8308 7.76731 28.4055 4.11149 29.1523L4.08707 29.1553C2.41825 29.3506 1.16308 29.0672 1.01774 27.1377C0.864157 25.0989 1.72341 22.8996 2.99723 21.3369C4.496 19.4985 6.45448 18.7527 8.75797 18.5459ZM15.4767 1.04102C16.5907 2.88139 17.5311 4.97022 18.588 6.8584C18.6923 7.04476 18.9149 7.45291 18.8693 7.66406L18.8009 7.7002C18.5423 7.62278 16.7786 6.1477 16.5588 5.9043C16.1503 6.37599 15.0026 7.36796 14.5002 7.77246L14.4992 10.1504L13.133 9.09473C12.8714 9.4322 11.6824 10.4222 11.2902 10.7686C11.2487 11.409 11.2901 12.9202 11.2863 13.5781C11.2826 14.2077 11.2336 16.4456 11.3254 16.8799C10.7609 16.7786 9.99247 16.8443 9.41422 16.8887C7.72164 16.9518 5.91772 17.681 4.46891 18.5186C4.63224 18.1744 5.50938 16.8449 5.76481 16.4395L8.36344 12.2852C10.7052 8.55945 13.0069 4.68123 15.3976 1L15.4767 1.04102ZM13.1183 9.68652C13.3099 9.69642 14.5353 10.6775 14.7072 10.8564L14.7296 10.8809L14.7511 10.9014C15.0444 11.2073 14.9279 15.0081 14.9103 15.6973C14.7285 15.8603 14.375 16.1113 14.1691 16.2666L13.1213 17.0254C13.1554 15.1588 13.118 13.2815 13.1349 11.4141C13.1401 10.8419 13.1399 10.2578 13.1183 9.68652ZM16.5285 6.52832C16.7442 6.59771 18.7485 8.20349 18.7863 8.49609C18.8417 8.92547 18.8284 9.98236 18.8273 10.4668L18.8224 14.2822C18.6108 14.313 18.4425 14.3541 18.2365 14.4043C17.6267 14.6508 17.3039 14.624 16.5207 15.0127C16.5675 14.2063 16.528 13.038 16.5275 12.1895L16.5285 6.52832Z" fill="#1C81CA"/>
</svg>
